<mxfile host="Electron" modified="2024-07-16T11:37:16.322Z" agent="Mozilla/5.0 (Macintosh; Intel Mac OS X 10_15_7) AppleWebKit/537.36 (KHTML, like Gecko) draw.io/22.0.3 Chrome/114.0.5735.289 Electron/25.8.4 Safari/537.36" etag="uCMQUwIvRs5JzuXAO5rq" version="22.0.3" type="device">
  <diagram name="Pagina-1" id="vDXGbc48_YGV5iek4wDI">
    <mxGraphModel dx="880" dy="634" grid="1" gridSize="10" guides="1" tooltips="1" connect="1" arrows="1" fold="1" page="1" pageScale="1" pageWidth="827" pageHeight="1169" math="1" shadow="0">
      <root>
        <mxCell id="0" />
        <mxCell id="1" parent="0" />
        <mxCell id="Jc-C7459ITg9KgkP2EXL-1" value="Get a list of all the &quot;station page&quot; URLs&amp;nbsp;" style="rounded=0;whiteSpace=wrap;html=1;" vertex="1" parent="1">
          <mxGeometry x="160" y="110" width="80" height="70" as="geometry" />
        </mxCell>
        <mxCell id="Jc-C7459ITg9KgkP2EXL-2" value="Download each station page" style="rounded=0;whiteSpace=wrap;html=1;" vertex="1" parent="1">
          <mxGeometry x="270" y="110" width="70" height="70" as="geometry" />
        </mxCell>
        <mxCell id="Jc-C7459ITg9KgkP2EXL-7" value="" style="edgeStyle=orthogonalEdgeStyle;rounded=0;orthogonalLoop=1;jettySize=auto;html=1;" edge="1" parent="1" source="Jc-C7459ITg9KgkP2EXL-3" target="Jc-C7459ITg9KgkP2EXL-2">
          <mxGeometry relative="1" as="geometry" />
        </mxCell>
        <mxCell id="Jc-C7459ITg9KgkP2EXL-8" value="" style="edgeStyle=orthogonalEdgeStyle;rounded=0;orthogonalLoop=1;jettySize=auto;html=1;" edge="1" parent="1" source="Jc-C7459ITg9KgkP2EXL-3" target="Jc-C7459ITg9KgkP2EXL-2">
          <mxGeometry relative="1" as="geometry" />
        </mxCell>
        <mxCell id="Jc-C7459ITg9KgkP2EXL-3" value="Filter out non-cities" style="rounded=0;whiteSpace=wrap;html=1;" vertex="1" parent="1">
          <mxGeometry x="370" y="110" width="70" height="70" as="geometry" />
        </mxCell>
        <mxCell id="Jc-C7459ITg9KgkP2EXL-4" value="Convert all of the useful data in a easy-to-use format" style="rounded=0;whiteSpace=wrap;html=1;" vertex="1" parent="1">
          <mxGeometry x="470" y="110" width="90" height="70" as="geometry" />
        </mxCell>
        <mxCell id="Jc-C7459ITg9KgkP2EXL-5" value="" style="shape=flexArrow;endArrow=classic;html=1;rounded=0;fillColor=#000000;" edge="1" parent="1">
          <mxGeometry width="50" height="50" relative="1" as="geometry">
            <mxPoint x="240" y="144.62" as="sourcePoint" />
            <mxPoint x="270" y="145" as="targetPoint" />
          </mxGeometry>
        </mxCell>
        <mxCell id="Jc-C7459ITg9KgkP2EXL-6" value="" style="shape=flexArrow;endArrow=classic;html=1;rounded=0;fillColor=#000000;" edge="1" parent="1">
          <mxGeometry width="50" height="50" relative="1" as="geometry">
            <mxPoint x="340" y="144.62" as="sourcePoint" />
            <mxPoint x="370" y="145" as="targetPoint" />
          </mxGeometry>
        </mxCell>
        <mxCell id="Jc-C7459ITg9KgkP2EXL-9" value="" style="shape=flexArrow;endArrow=classic;html=1;rounded=0;fillColor=#000000;" edge="1" parent="1">
          <mxGeometry width="50" height="50" relative="1" as="geometry">
            <mxPoint x="440" y="144.62" as="sourcePoint" />
            <mxPoint x="470" y="145" as="targetPoint" />
          </mxGeometry>
        </mxCell>
        <mxCell id="Jc-C7459ITg9KgkP2EXL-10" value="" style="shape=image;verticalLabelPosition=bottom;labelBackgroundColor=default;verticalAlign=top;aspect=fixed;imageAspect=0;image=data:image/svg+xml,PHN2ZyB4bWxuczp4bGluaz0iaHR0cDovL3d3dy53My5vcmcvMTk5OS94bGluayIgeG1sbnM9Imh0dHA6Ly93d3cudzMub3JnLzIwMDAvc3ZnIiB4bWw6c3BhY2U9InByZXNlcnZlIiB2aWV3Qm94PSIwIDAgNDg4LjcgNDg4LjciIGlkPSJDYXBhXzEiIHZlcnNpb249IjEuMSIgd2lkdGg9IjgwMHB4IiBoZWlnaHQ9IjgwMHB4IiBmaWxsPSIjMDAwMDAwIj4mI3hhOzxnPiYjeGE7CTxnPiYjeGE7CQk8cGF0aCBkPSJNMTQ1LjUxMiwyODQuN2MwLDctNS42LDEyLjgtMTIuNywxMi44Yy0zLjUsMC02LjctMS40LTktMy43Yy0yLjMtMi4zLTMuNy01LjUtMy43LTljMC03LDUuNi0xMi44LDEyLjctMTIuOCYjMTA7JiM5OyYjOTsmIzk7QzEzOS43MTIsMjcyLDE0NS41MTIsMjc3LjcsMTQ1LjUxMiwyODQuN3ogTTE1NC4wMTIsMzQ4LjJjLTUsNS00LjksMTMsMCwxOGwwLDBjNSw0LjksMTMuMSw0LjksMTgtMC4xYzUtNSw0LjktMTMuMS0wLjEtMTgmIzEwOyYjOTsmIzk7JiM5O0MxNjcuMDEyLDM0My4yLDE1OC45MTMsMzQzLjIsMTU0LjAxMiwzNDguMnogTTIzNS4zMTMsMTk0LjVjNywwLDEyLjgtNS43LDEyLjgtMTIuOHMtNS43LTEyLjgtMTIuOC0xMi44cy0xMi44LDUuNy0xMi44LDEyLjgmIzEwOyYjOTsmIzk7JiM5O2MwLDMuNSwxLjQsNi43LDMuNyw5QzIyOC42MTMsMTkzLjEsMjMxLjgxMywxOTQuNSwyMzUuMzEzLDE5NC41eiBNMTUzLjUxMiwyMjEuMmM1LDQuOSwxMy4xLDQuOSwxOC0wLjFsMC4xLTAuMSYjMTA7JiM5OyYjOTsmIzk7YzAuMS0wLjEsMC4xLTAuMSwwLjItMC4yYzUtNSw1LTEzLDAtMThzLTEzLjEtNS0xOCwwYy0wLjEsMC4xLTAuMSwwLjEtMC4yLDAuMmMtMC4xLDAuMS0wLjEsMC4xLTAuMiwwLjImIzEwOyYjOTsmIzk7JiM5O0MxNDguNTEyLDIwOC4xLDE0OC41MTIsMjE2LjIsMTUzLjUxMiwyMjEuMkwxNTMuNTEyLDIyMS4yeiBNMjM1LjYxMywzNzQuM2MtNy4xLDAtMTIuNyw1LjctMTIuNywxMi44YzAsMy41LDEuNCw2LjcsMy43LDkmIzEwOyYjOTsmIzk7JiM5O3M1LjUsMy43LDkuMSwzLjdjNywwLDEyLjctNS43LDEyLjctMTIuOEMyNDguNDEzLDM4MCwyNDIuNzEyLDM3NC4zLDIzNS42MTMsMzc0LjN6IE0yOTkuMTEyLDM0Ny44Yy01LDUtNSwxMy4xLDAsMTgmIzEwOyYjOTsmIzk7JiM5O2M1LDUsMTMuMSw1LDE4LDBjNS01LDQuOS0xMy4xLDAtMTguMUMzMTIuMTEyLDM0Mi44LDMwNC4wMTMsMzQyLjgsMjk5LjExMiwzNDcuOHogTTMzOC4wMTMsMjcxLjVjLTcuMSwwLTEyLjgsNS43LTEyLjgsMTIuOCYjMTA7JiM5OyYjOTsmIzk7YzAsMy41LDEuNCw2LjcsMy43LDljMi4zLDIuMyw1LjUsMy44LDksMy43YzcuMSwwLDEyLjctNS43LDEyLjgtMTIuOEMzNTAuODEzLDI3Ny4yLDM0NS4xMTIsMjcxLjUsMzM4LjAxMywyNzEuNXogTTIzNS45MTMsNDg4LjcmIzEwOyYjOTsmIzk7JiM5O2MtMTEyLjUsMC0yMDQuMS05MS42LTIwNC4xLTIwNC4xYzAtMTA0LjQsNzguOS0xOTAuNywxODAuMi0yMDIuNlY1MS4xaC0xMi43Yy02LjQsMC0xMS41LTUuMi0xMS41LTExLjVWMTEuNSYjMTA7JiM5OyYjOTsmIzk7YzAtNi40LDUuMi0xMS41LDExLjUtMTEuNWg3My4yYzYuNCwwLDExLjUsNS4yLDExLjUsMTEuNXYyOC4xYzAsNi40LTUuMiwxMS41LTExLjUsMTEuNWgtMTIuN3YzMC44JiMxMDsmIzk7JiM5OyYjOTtjMzguNSw0LjUsNzMuNywxOS44LDEwMi42LDQyLjdsMTYuNi0xNi42bC0xLjUtMS41Yy00LjUtNC41LTQuNS0xMS44LDAtMTYuM2wyMi44LTIyLjhjNC41LTQuNSwxMS44LTQuNSwxNi4zLDBsMzYuOSwzNi45JiMxMDsmIzk7JiM5OyYjOTtjNC41LDQuNSw0LjUsMTEuOCwwLDE2LjNsLTIyLjgsMjIuOGMtNC41LDQuNS0xMS44LDQuNS0xNi4zLDBsLTEuNS0xLjVsLTE2LjYsMTYuNmMyNy40LDM0LjcsNDMuNyw3OC41LDQzLjcsMTI2JiMxMDsmIzk7JiM5OyYjOTtDNDQwLjAxMywzOTcuMSwzNDguNDEzLDQ4OC43LDIzNS45MTMsNDg4Ljd6IE0zOTIuNjEyLDI4NC42YzAtODYuNC03MC4zLTE1Ni43LTE1Ni43LTE1Ni43cy0xNTYuNyw3MC4zLTE1Ni43LDE1Ni43JiMxMDsmIzk7JiM5OyYjOTtzNzAuMiwxNTYuNywxNTYuNywxNTYuN0MzMjIuMzEzLDQ0MS4zLDM5Mi42MTIsMzcxLDM5Mi42MTIsMjg0LjZ6IE0zMTcuOTEzLDIwMS44YzQuNyw0LjcsNSwxMi4zLDAuNywxNy4zbC01Miw2MC45JiMxMDsmIzk7JiM5OyYjOTtjMS4zLDkuNS0xLjYsMTkuNC04LjksMjYuN2MtMTIuMywxMi4zLTMyLjMsMTIuMy00NC43LDBjLTEyLjMtMTIuMy0xMi4zLTMyLjMsMC00NC43YzcuMy03LjMsMTcuMi0xMC4yLDI2LjctOC45bDYwLjktNTImIzEwOyYjOTsmIzk7JiM5O0MzMDUuNzEyLDE5Ni44LDMxMy4yMTIsMTk3LjEsMzE3LjkxMywyMDEuOEwzMTcuOTEzLDIwMS44eiBNMjQ0LjQxMywyNzUuNGMtNS01LTEzLjEtNS0xOCwwYy01LDUtNSwxMy4xLDAsMThjNSw1LDEzLjEsNSwxOCwwJiMxMDsmIzk7JiM5OyYjOTtDMjQ5LjQxMywyODguNCwyNDkuNDEzLDI4MC40LDI0NC40MTMsMjc1LjR6Ii8+JiN4YTsJPC9nPiYjeGE7PC9nPiYjeGE7PC9zdmc+;" vertex="1" parent="1">
          <mxGeometry x="160" y="196.75" width="23.5" height="23.5" as="geometry" />
        </mxCell>
        <mxCell id="Jc-C7459ITg9KgkP2EXL-11" value="$$\approx 10min$$" style="text;html=1;strokeColor=none;fillColor=none;align=center;verticalAlign=middle;whiteSpace=wrap;rounded=0;" vertex="1" parent="1">
          <mxGeometry x="183.5" y="193.5" width="60" height="30" as="geometry" />
        </mxCell>
        <mxCell id="Jc-C7459ITg9KgkP2EXL-12" value="" style="shape=image;verticalLabelPosition=bottom;labelBackgroundColor=default;verticalAlign=top;aspect=fixed;imageAspect=0;image=data:image/svg+xml,PHN2ZyB4bWxuczp4bGluaz0iaHR0cDovL3d3dy53My5vcmcvMTk5OS94bGluayIgeG1sbnM9Imh0dHA6Ly93d3cudzMub3JnLzIwMDAvc3ZnIiB4bWw6c3BhY2U9InByZXNlcnZlIiB2aWV3Qm94PSIwIDAgNDg4LjcgNDg4LjciIGlkPSJDYXBhXzEiIHZlcnNpb249IjEuMSIgd2lkdGg9IjgwMHB4IiBoZWlnaHQ9IjgwMHB4IiBmaWxsPSIjMDAwMDAwIj4mI3hhOzxnPiYjeGE7CTxnPiYjeGE7CQk8cGF0aCBkPSJNMTQ1LjUxMiwyODQuN2MwLDctNS42LDEyLjgtMTIuNywxMi44Yy0zLjUsMC02LjctMS40LTktMy43Yy0yLjMtMi4zLTMuNy01LjUtMy43LTljMC03LDUuNi0xMi44LDEyLjctMTIuOCYjMTA7JiM5OyYjOTsmIzk7QzEzOS43MTIsMjcyLDE0NS41MTIsMjc3LjcsMTQ1LjUxMiwyODQuN3ogTTE1NC4wMTIsMzQ4LjJjLTUsNS00LjksMTMsMCwxOGwwLDBjNSw0LjksMTMuMSw0LjksMTgtMC4xYzUtNSw0LjktMTMuMS0wLjEtMTgmIzEwOyYjOTsmIzk7JiM5O0MxNjcuMDEyLDM0My4yLDE1OC45MTMsMzQzLjIsMTU0LjAxMiwzNDguMnogTTIzNS4zMTMsMTk0LjVjNywwLDEyLjgtNS43LDEyLjgtMTIuOHMtNS43LTEyLjgtMTIuOC0xMi44cy0xMi44LDUuNy0xMi44LDEyLjgmIzEwOyYjOTsmIzk7JiM5O2MwLDMuNSwxLjQsNi43LDMuNyw5QzIyOC42MTMsMTkzLjEsMjMxLjgxMywxOTQuNSwyMzUuMzEzLDE5NC41eiBNMTUzLjUxMiwyMjEuMmM1LDQuOSwxMy4xLDQuOSwxOC0wLjFsMC4xLTAuMSYjMTA7JiM5OyYjOTsmIzk7YzAuMS0wLjEsMC4xLTAuMSwwLjItMC4yYzUtNSw1LTEzLDAtMThzLTEzLjEtNS0xOCwwYy0wLjEsMC4xLTAuMSwwLjEtMC4yLDAuMmMtMC4xLDAuMS0wLjEsMC4xLTAuMiwwLjImIzEwOyYjOTsmIzk7JiM5O0MxNDguNTEyLDIwOC4xLDE0OC41MTIsMjE2LjIsMTUzLjUxMiwyMjEuMkwxNTMuNTEyLDIyMS4yeiBNMjM1LjYxMywzNzQuM2MtNy4xLDAtMTIuNyw1LjctMTIuNywxMi44YzAsMy41LDEuNCw2LjcsMy43LDkmIzEwOyYjOTsmIzk7JiM5O3M1LjUsMy43LDkuMSwzLjdjNywwLDEyLjctNS43LDEyLjctMTIuOEMyNDguNDEzLDM4MCwyNDIuNzEyLDM3NC4zLDIzNS42MTMsMzc0LjN6IE0yOTkuMTEyLDM0Ny44Yy01LDUtNSwxMy4xLDAsMTgmIzEwOyYjOTsmIzk7JiM5O2M1LDUsMTMuMSw1LDE4LDBjNS01LDQuOS0xMy4xLDAtMTguMUMzMTIuMTEyLDM0Mi44LDMwNC4wMTMsMzQyLjgsMjk5LjExMiwzNDcuOHogTTMzOC4wMTMsMjcxLjVjLTcuMSwwLTEyLjgsNS43LTEyLjgsMTIuOCYjMTA7JiM5OyYjOTsmIzk7YzAsMy41LDEuNCw2LjcsMy43LDljMi4zLDIuMyw1LjUsMy44LDksMy43YzcuMSwwLDEyLjctNS43LDEyLjgtMTIuOEMzNTAuODEzLDI3Ny4yLDM0NS4xMTIsMjcxLjUsMzM4LjAxMywyNzEuNXogTTIzNS45MTMsNDg4LjcmIzEwOyYjOTsmIzk7JiM5O2MtMTEyLjUsMC0yMDQuMS05MS42LTIwNC4xLTIwNC4xYzAtMTA0LjQsNzguOS0xOTAuNywxODAuMi0yMDIuNlY1MS4xaC0xMi43Yy02LjQsMC0xMS41LTUuMi0xMS41LTExLjVWMTEuNSYjMTA7JiM5OyYjOTsmIzk7YzAtNi40LDUuMi0xMS41LDExLjUtMTEuNWg3My4yYzYuNCwwLDExLjUsNS4yLDExLjUsMTEuNXYyOC4xYzAsNi40LTUuMiwxMS41LTExLjUsMTEuNWgtMTIuN3YzMC44JiMxMDsmIzk7JiM5OyYjOTtjMzguNSw0LjUsNzMuNywxOS44LDEwMi42LDQyLjdsMTYuNi0xNi42bC0xLjUtMS41Yy00LjUtNC41LTQuNS0xMS44LDAtMTYuM2wyMi44LTIyLjhjNC41LTQuNSwxMS44LTQuNSwxNi4zLDBsMzYuOSwzNi45JiMxMDsmIzk7JiM5OyYjOTtjNC41LDQuNSw0LjUsMTEuOCwwLDE2LjNsLTIyLjgsMjIuOGMtNC41LDQuNS0xMS44LDQuNS0xNi4zLDBsLTEuNS0xLjVsLTE2LjYsMTYuNmMyNy40LDM0LjcsNDMuNyw3OC41LDQzLjcsMTI2JiMxMDsmIzk7JiM5OyYjOTtDNDQwLjAxMywzOTcuMSwzNDguNDEzLDQ4OC43LDIzNS45MTMsNDg4Ljd6IE0zOTIuNjEyLDI4NC42YzAtODYuNC03MC4zLTE1Ni43LTE1Ni43LTE1Ni43cy0xNTYuNyw3MC4zLTE1Ni43LDE1Ni43JiMxMDsmIzk7JiM5OyYjOTtzNzAuMiwxNTYuNywxNTYuNywxNTYuN0MzMjIuMzEzLDQ0MS4zLDM5Mi42MTIsMzcxLDM5Mi42MTIsMjg0LjZ6IE0zMTcuOTEzLDIwMS44YzQuNyw0LjcsNSwxMi4zLDAuNywxNy4zbC01Miw2MC45JiMxMDsmIzk7JiM5OyYjOTtjMS4zLDkuNS0xLjYsMTkuNC04LjksMjYuN2MtMTIuMywxMi4zLTMyLjMsMTIuMy00NC43LDBjLTEyLjMtMTIuMy0xMi4zLTMyLjMsMC00NC43YzcuMy03LjMsMTcuMi0xMC4yLDI2LjctOC45bDYwLjktNTImIzEwOyYjOTsmIzk7JiM5O0MzMDUuNzEyLDE5Ni44LDMxMy4yMTIsMTk3LjEsMzE3LjkxMywyMDEuOEwzMTcuOTEzLDIwMS44eiBNMjQ0LjQxMywyNzUuNGMtNS01LTEzLjEtNS0xOCwwYy01LDUtNSwxMy4xLDAsMThjNSw1LDEzLjEsNSwxOCwwJiMxMDsmIzk7JiM5OyYjOTtDMjQ5LjQxMywyODguNCwyNDkuNDEzLDI4MC40LDI0NC40MTMsMjc1LjR6Ii8+JiN4YTsJPC9nPiYjeGE7PC9nPiYjeGE7PC9zdmc+;" vertex="1" parent="1">
          <mxGeometry x="270" y="196.75" width="23.5" height="23.5" as="geometry" />
        </mxCell>
        <mxCell id="Jc-C7459ITg9KgkP2EXL-13" value="$$\approx 10h$$" style="text;html=1;strokeColor=none;fillColor=none;align=center;verticalAlign=middle;whiteSpace=wrap;rounded=0;" vertex="1" parent="1">
          <mxGeometry x="285" y="193.5" width="60" height="30" as="geometry" />
        </mxCell>
        <mxCell id="Jc-C7459ITg9KgkP2EXL-15" value="" style="shape=image;verticalLabelPosition=bottom;labelBackgroundColor=default;verticalAlign=top;aspect=fixed;imageAspect=0;image=data:image/svg+xml,PHN2ZyB4bWxuczp4bGluaz0iaHR0cDovL3d3dy53My5vcmcvMTk5OS94bGluayIgeG1sbnM9Imh0dHA6Ly93d3cudzMub3JnLzIwMDAvc3ZnIiB4bWw6c3BhY2U9InByZXNlcnZlIiB2aWV3Qm94PSIwIDAgNDg4LjcgNDg4LjciIGlkPSJDYXBhXzEiIHZlcnNpb249IjEuMSIgd2lkdGg9IjgwMHB4IiBoZWlnaHQ9IjgwMHB4IiBmaWxsPSIjMDAwMDAwIj4mI3hhOzxnPiYjeGE7CTxnPiYjeGE7CQk8cGF0aCBkPSJNMTQ1LjUxMiwyODQuN2MwLDctNS42LDEyLjgtMTIuNywxMi44Yy0zLjUsMC02LjctMS40LTktMy43Yy0yLjMtMi4zLTMuNy01LjUtMy43LTljMC03LDUuNi0xMi44LDEyLjctMTIuOCYjMTA7JiM5OyYjOTsmIzk7QzEzOS43MTIsMjcyLDE0NS41MTIsMjc3LjcsMTQ1LjUxMiwyODQuN3ogTTE1NC4wMTIsMzQ4LjJjLTUsNS00LjksMTMsMCwxOGwwLDBjNSw0LjksMTMuMSw0LjksMTgtMC4xYzUtNSw0LjktMTMuMS0wLjEtMTgmIzEwOyYjOTsmIzk7JiM5O0MxNjcuMDEyLDM0My4yLDE1OC45MTMsMzQzLjIsMTU0LjAxMiwzNDguMnogTTIzNS4zMTMsMTk0LjVjNywwLDEyLjgtNS43LDEyLjgtMTIuOHMtNS43LTEyLjgtMTIuOC0xMi44cy0xMi44LDUuNy0xMi44LDEyLjgmIzEwOyYjOTsmIzk7JiM5O2MwLDMuNSwxLjQsNi43LDMuNyw5QzIyOC42MTMsMTkzLjEsMjMxLjgxMywxOTQuNSwyMzUuMzEzLDE5NC41eiBNMTUzLjUxMiwyMjEuMmM1LDQuOSwxMy4xLDQuOSwxOC0wLjFsMC4xLTAuMSYjMTA7JiM5OyYjOTsmIzk7YzAuMS0wLjEsMC4xLTAuMSwwLjItMC4yYzUtNSw1LTEzLDAtMThzLTEzLjEtNS0xOCwwYy0wLjEsMC4xLTAuMSwwLjEtMC4yLDAuMmMtMC4xLDAuMS0wLjEsMC4xLTAuMiwwLjImIzEwOyYjOTsmIzk7JiM5O0MxNDguNTEyLDIwOC4xLDE0OC41MTIsMjE2LjIsMTUzLjUxMiwyMjEuMkwxNTMuNTEyLDIyMS4yeiBNMjM1LjYxMywzNzQuM2MtNy4xLDAtMTIuNyw1LjctMTIuNywxMi44YzAsMy41LDEuNCw2LjcsMy43LDkmIzEwOyYjOTsmIzk7JiM5O3M1LjUsMy43LDkuMSwzLjdjNywwLDEyLjctNS43LDEyLjctMTIuOEMyNDguNDEzLDM4MCwyNDIuNzEyLDM3NC4zLDIzNS42MTMsMzc0LjN6IE0yOTkuMTEyLDM0Ny44Yy01LDUtNSwxMy4xLDAsMTgmIzEwOyYjOTsmIzk7JiM5O2M1LDUsMTMuMSw1LDE4LDBjNS01LDQuOS0xMy4xLDAtMTguMUMzMTIuMTEyLDM0Mi44LDMwNC4wMTMsMzQyLjgsMjk5LjExMiwzNDcuOHogTTMzOC4wMTMsMjcxLjVjLTcuMSwwLTEyLjgsNS43LTEyLjgsMTIuOCYjMTA7JiM5OyYjOTsmIzk7YzAsMy41LDEuNCw2LjcsMy43LDljMi4zLDIuMyw1LjUsMy44LDksMy43YzcuMSwwLDEyLjctNS43LDEyLjgtMTIuOEMzNTAuODEzLDI3Ny4yLDM0NS4xMTIsMjcxLjUsMzM4LjAxMywyNzEuNXogTTIzNS45MTMsNDg4LjcmIzEwOyYjOTsmIzk7JiM5O2MtMTEyLjUsMC0yMDQuMS05MS42LTIwNC4xLTIwNC4xYzAtMTA0LjQsNzguOS0xOTAuNywxODAuMi0yMDIuNlY1MS4xaC0xMi43Yy02LjQsMC0xMS41LTUuMi0xMS41LTExLjVWMTEuNSYjMTA7JiM5OyYjOTsmIzk7YzAtNi40LDUuMi0xMS41LDExLjUtMTEuNWg3My4yYzYuNCwwLDExLjUsNS4yLDExLjUsMTEuNXYyOC4xYzAsNi40LTUuMiwxMS41LTExLjUsMTEuNWgtMTIuN3YzMC44JiMxMDsmIzk7JiM5OyYjOTtjMzguNSw0LjUsNzMuNywxOS44LDEwMi42LDQyLjdsMTYuNi0xNi42bC0xLjUtMS41Yy00LjUtNC41LTQuNS0xMS44LDAtMTYuM2wyMi44LTIyLjhjNC41LTQuNSwxMS44LTQuNSwxNi4zLDBsMzYuOSwzNi45JiMxMDsmIzk7JiM5OyYjOTtjNC41LDQuNSw0LjUsMTEuOCwwLDE2LjNsLTIyLjgsMjIuOGMtNC41LDQuNS0xMS44LDQuNS0xNi4zLDBsLTEuNS0xLjVsLTE2LjYsMTYuNmMyNy40LDM0LjcsNDMuNyw3OC41LDQzLjcsMTI2JiMxMDsmIzk7JiM5OyYjOTtDNDQwLjAxMywzOTcuMSwzNDguNDEzLDQ4OC43LDIzNS45MTMsNDg4Ljd6IE0zOTIuNjEyLDI4NC42YzAtODYuNC03MC4zLTE1Ni43LTE1Ni43LTE1Ni43cy0xNTYuNyw3MC4zLTE1Ni43LDE1Ni43JiMxMDsmIzk7JiM5OyYjOTtzNzAuMiwxNTYuNywxNTYuNywxNTYuN0MzMjIuMzEzLDQ0MS4zLDM5Mi42MTIsMzcxLDM5Mi42MTIsMjg0LjZ6IE0zMTcuOTEzLDIwMS44YzQuNyw0LjcsNSwxMi4zLDAuNywxNy4zbC01Miw2MC45JiMxMDsmIzk7JiM5OyYjOTtjMS4zLDkuNS0xLjYsMTkuNC04LjksMjYuN2MtMTIuMywxMi4zLTMyLjMsMTIuMy00NC43LDBjLTEyLjMtMTIuMy0xMi4zLTMyLjMsMC00NC43YzcuMy03LjMsMTcuMi0xMC4yLDI2LjctOC45bDYwLjktNTImIzEwOyYjOTsmIzk7JiM5O0MzMDUuNzEyLDE5Ni44LDMxMy4yMTIsMTk3LjEsMzE3LjkxMywyMDEuOEwzMTcuOTEzLDIwMS44eiBNMjQ0LjQxMywyNzUuNGMtNS01LTEzLjEtNS0xOCwwYy01LDUtNSwxMy4xLDAsMThjNSw1LDEzLjEsNSwxOCwwJiMxMDsmIzk7JiM5OyYjOTtDMjQ5LjQxMywyODguNCwyNDkuNDEzLDI4MC40LDI0NC40MTMsMjc1LjR6Ii8+JiN4YTsJPC9nPiYjeGE7PC9nPiYjeGE7PC9zdmc+;" vertex="1" parent="1">
          <mxGeometry x="370" y="196.75" width="23.5" height="23.5" as="geometry" />
        </mxCell>
        <mxCell id="Jc-C7459ITg9KgkP2EXL-16" value="$$\approx 30s$$" style="text;html=1;strokeColor=none;fillColor=none;align=center;verticalAlign=middle;whiteSpace=wrap;rounded=0;" vertex="1" parent="1">
          <mxGeometry x="385" y="193.5" width="60" height="30" as="geometry" />
        </mxCell>
        <mxCell id="Jc-C7459ITg9KgkP2EXL-17" value="" style="shape=image;verticalLabelPosition=bottom;labelBackgroundColor=default;verticalAlign=top;aspect=fixed;imageAspect=0;image=data:image/svg+xml,PHN2ZyB4bWxuczp4bGluaz0iaHR0cDovL3d3dy53My5vcmcvMTk5OS94bGluayIgeG1sbnM9Imh0dHA6Ly93d3cudzMub3JnLzIwMDAvc3ZnIiB4bWw6c3BhY2U9InByZXNlcnZlIiB2aWV3Qm94PSIwIDAgNDg4LjcgNDg4LjciIGlkPSJDYXBhXzEiIHZlcnNpb249IjEuMSIgd2lkdGg9IjgwMHB4IiBoZWlnaHQ9IjgwMHB4IiBmaWxsPSIjMDAwMDAwIj4mI3hhOzxnPiYjeGE7CTxnPiYjeGE7CQk8cGF0aCBkPSJNMTQ1LjUxMiwyODQuN2MwLDctNS42LDEyLjgtMTIuNywxMi44Yy0zLjUsMC02LjctMS40LTktMy43Yy0yLjMtMi4zLTMuNy01LjUtMy43LTljMC03LDUuNi0xMi44LDEyLjctMTIuOCYjMTA7JiM5OyYjOTsmIzk7QzEzOS43MTIsMjcyLDE0NS41MTIsMjc3LjcsMTQ1LjUxMiwyODQuN3ogTTE1NC4wMTIsMzQ4LjJjLTUsNS00LjksMTMsMCwxOGwwLDBjNSw0LjksMTMuMSw0LjksMTgtMC4xYzUtNSw0LjktMTMuMS0wLjEtMTgmIzEwOyYjOTsmIzk7JiM5O0MxNjcuMDEyLDM0My4yLDE1OC45MTMsMzQzLjIsMTU0LjAxMiwzNDguMnogTTIzNS4zMTMsMTk0LjVjNywwLDEyLjgtNS43LDEyLjgtMTIuOHMtNS43LTEyLjgtMTIuOC0xMi44cy0xMi44LDUuNy0xMi44LDEyLjgmIzEwOyYjOTsmIzk7JiM5O2MwLDMuNSwxLjQsNi43LDMuNyw5QzIyOC42MTMsMTkzLjEsMjMxLjgxMywxOTQuNSwyMzUuMzEzLDE5NC41eiBNMTUzLjUxMiwyMjEuMmM1LDQuOSwxMy4xLDQuOSwxOC0wLjFsMC4xLTAuMSYjMTA7JiM5OyYjOTsmIzk7YzAuMS0wLjEsMC4xLTAuMSwwLjItMC4yYzUtNSw1LTEzLDAtMThzLTEzLjEtNS0xOCwwYy0wLjEsMC4xLTAuMSwwLjEtMC4yLDAuMmMtMC4xLDAuMS0wLjEsMC4xLTAuMiwwLjImIzEwOyYjOTsmIzk7JiM5O0MxNDguNTEyLDIwOC4xLDE0OC41MTIsMjE2LjIsMTUzLjUxMiwyMjEuMkwxNTMuNTEyLDIyMS4yeiBNMjM1LjYxMywzNzQuM2MtNy4xLDAtMTIuNyw1LjctMTIuNywxMi44YzAsMy41LDEuNCw2LjcsMy43LDkmIzEwOyYjOTsmIzk7JiM5O3M1LjUsMy43LDkuMSwzLjdjNywwLDEyLjctNS43LDEyLjctMTIuOEMyNDguNDEzLDM4MCwyNDIuNzEyLDM3NC4zLDIzNS42MTMsMzc0LjN6IE0yOTkuMTEyLDM0Ny44Yy01LDUtNSwxMy4xLDAsMTgmIzEwOyYjOTsmIzk7JiM5O2M1LDUsMTMuMSw1LDE4LDBjNS01LDQuOS0xMy4xLDAtMTguMUMzMTIuMTEyLDM0Mi44LDMwNC4wMTMsMzQyLjgsMjk5LjExMiwzNDcuOHogTTMzOC4wMTMsMjcxLjVjLTcuMSwwLTEyLjgsNS43LTEyLjgsMTIuOCYjMTA7JiM5OyYjOTsmIzk7YzAsMy41LDEuNCw2LjcsMy43LDljMi4zLDIuMyw1LjUsMy44LDksMy43YzcuMSwwLDEyLjctNS43LDEyLjgtMTIuOEMzNTAuODEzLDI3Ny4yLDM0NS4xMTIsMjcxLjUsMzM4LjAxMywyNzEuNXogTTIzNS45MTMsNDg4LjcmIzEwOyYjOTsmIzk7JiM5O2MtMTEyLjUsMC0yMDQuMS05MS42LTIwNC4xLTIwNC4xYzAtMTA0LjQsNzguOS0xOTAuNywxODAuMi0yMDIuNlY1MS4xaC0xMi43Yy02LjQsMC0xMS41LTUuMi0xMS41LTExLjVWMTEuNSYjMTA7JiM5OyYjOTsmIzk7YzAtNi40LDUuMi0xMS41LDExLjUtMTEuNWg3My4yYzYuNCwwLDExLjUsNS4yLDExLjUsMTEuNXYyOC4xYzAsNi40LTUuMiwxMS41LTExLjUsMTEuNWgtMTIuN3YzMC44JiMxMDsmIzk7JiM5OyYjOTtjMzguNSw0LjUsNzMuNywxOS44LDEwMi42LDQyLjdsMTYuNi0xNi42bC0xLjUtMS41Yy00LjUtNC41LTQuNS0xMS44LDAtMTYuM2wyMi44LTIyLjhjNC41LTQuNSwxMS44LTQuNSwxNi4zLDBsMzYuOSwzNi45JiMxMDsmIzk7JiM5OyYjOTtjNC41LDQuNSw0LjUsMTEuOCwwLDE2LjNsLTIyLjgsMjIuOGMtNC41LDQuNS0xMS44LDQuNS0xNi4zLDBsLTEuNS0xLjVsLTE2LjYsMTYuNmMyNy40LDM0LjcsNDMuNyw3OC41LDQzLjcsMTI2JiMxMDsmIzk7JiM5OyYjOTtDNDQwLjAxMywzOTcuMSwzNDguNDEzLDQ4OC43LDIzNS45MTMsNDg4Ljd6IE0zOTIuNjEyLDI4NC42YzAtODYuNC03MC4zLTE1Ni43LTE1Ni43LTE1Ni43cy0xNTYuNyw3MC4zLTE1Ni43LDE1Ni43JiMxMDsmIzk7JiM5OyYjOTtzNzAuMiwxNTYuNywxNTYuNywxNTYuN0MzMjIuMzEzLDQ0MS4zLDM5Mi42MTIsMzcxLDM5Mi42MTIsMjg0LjZ6IE0zMTcuOTEzLDIwMS44YzQuNyw0LjcsNSwxMi4zLDAuNywxNy4zbC01Miw2MC45JiMxMDsmIzk7JiM5OyYjOTtjMS4zLDkuNS0xLjYsMTkuNC04LjksMjYuN2MtMTIuMywxMi4zLTMyLjMsMTIuMy00NC43LDBjLTEyLjMtMTIuMy0xMi4zLTMyLjMsMC00NC43YzcuMy03LjMsMTcuMi0xMC4yLDI2LjctOC45bDYwLjktNTImIzEwOyYjOTsmIzk7JiM5O0MzMDUuNzEyLDE5Ni44LDMxMy4yMTIsMTk3LjEsMzE3LjkxMywyMDEuOEwzMTcuOTEzLDIwMS44eiBNMjQ0LjQxMywyNzUuNGMtNS01LTEzLjEtNS0xOCwwYy01LDUtNSwxMy4xLDAsMThjNSw1LDEzLjEsNSwxOCwwJiMxMDsmIzk7JiM5OyYjOTtDMjQ5LjQxMywyODguNCwyNDkuNDEzLDI4MC40LDI0NC40MTMsMjc1LjR6Ii8+JiN4YTsJPC9nPiYjeGE7PC9nPiYjeGE7PC9zdmc+;" vertex="1" parent="1">
          <mxGeometry x="485" y="196.75" width="23.5" height="23.5" as="geometry" />
        </mxCell>
        <mxCell id="Jc-C7459ITg9KgkP2EXL-18" value="$$\approx 30s$$" style="text;html=1;strokeColor=none;fillColor=none;align=center;verticalAlign=middle;whiteSpace=wrap;rounded=0;" vertex="1" parent="1">
          <mxGeometry x="500" y="193.5" width="60" height="30" as="geometry" />
        </mxCell>
      </root>
    </mxGraphModel>
  </diagram>
</mxfile>
